<svg width="7" height="4" viewBox="0 0 7 4" fill="none" xmlns="http://www.w3.org/2000/svg">
<path d="M3.99692 3.80666C3.93185 3.86915 3.85443 3.91874 3.76912 3.95259C3.68382 3.98644 3.59233 4.00386 3.49992 4.00386C3.40751 4.00386 3.31602 3.98644 3.23072 3.95259C3.14542 3.91874 3.06799 3.86915 3.00292 3.80666L0.202921 1.14C0.1042 1.04675 0.0368738 0.927615 0.00952501 0.797783C-0.0178238 0.667952 -0.00395572 0.533304 0.049361 0.411008C0.102678 0.288712 0.193028 0.184309 0.308891 0.111108C0.424755 0.0379073 0.560884 -0.000774044 0.699921 -3.98086e-06H6.29992C6.43931 -0.000668862 6.57574 0.0383154 6.69172 0.111954C6.8077 0.185593 6.89795 0.290533 6.95092 0.413329C7.00365 0.535369 7.01717 0.669568 6.98975 0.798928C6.96234 0.928289 6.89523 1.04699 6.79692 1.14L3.99692 3.80666Z" fill="#A9A29C"/>
</svg>
