<svg width="11" height="6" viewBox="0 0 11 6" fill="none" xmlns="http://www.w3.org/2000/svg">
<g clip-path="url(#clip0_2_683)">
<path d="M4.94218 5.7825C5.01523 5.8528 5.10213 5.90859 5.19787 5.94667C5.29362 5.98475 5.39632 6.00435 5.50004 6.00435C5.60376 6.00435 5.70646 5.98475 5.80221 5.94667C5.89795 5.90859 5.98486 5.8528 6.0579 5.7825L10.7722 1.2825C10.9201 1.14127 11.0033 0.949728 11.0033 0.750002C11.0033 0.550276 10.9201 0.35873 10.7722 0.217502C10.6242 0.076274 10.4236 -0.00306702 10.2143 -0.00306702C10.0051 -0.00306702 9.80442 0.076274 9.65647 0.217502L5.50004 4.185L1.34361 0.217502C1.19566 0.076274 0.994992 -0.00306702 0.785755 -0.00306702C0.576518 -0.00306702 0.375851 0.076274 0.227898 0.217502C0.0799452 0.35873 -0.00317383 0.550276 -0.00317383 0.750002C-0.00317383 0.949728 0.0799452 1.14127 0.227898 1.2825L4.94218 5.7825Z" fill="#A9A29C"/>
</g>
<defs>
<clipPath id="clip0_2_683">
<rect width="11" height="6" fill="white"/>
</clipPath>
</defs>
</svg>
